<svg xmlns="http://www.w3.org/2000/svg" version="1.1" width="130px" height="130px" style="shape-rendering:geometricPrecision; text-rendering:geometricPrecision; image-rendering:optimizeQuality; fill-rule:evenodd; clip-rule:evenodd" xmlns:xlink="http://www.w3.org/1999/xlink">
    <g><path style="opacity:1" fill="#5b4559" d="M -0.5,-0.5 C 4.83333,-0.5 10.1667,-0.5 15.5,-0.5C 15.5,2.83333 15.5,6.16667 15.5,9.5C 10.1667,9.5 4.83333,9.5 -0.5,9.5C -0.5,6.16667 -0.5,2.83333 -0.5,-0.5 Z"/></g>
    <g><path style="opacity:1" fill="#564154" d="M 15.5,-0.5 C 18.8333,-0.5 22.1667,-0.5 25.5,-0.5C 25.5,2.83333 25.5,6.16667 25.5,9.5C 22.1667,9.5 18.8333,9.5 15.5,9.5C 15.5,6.16667 15.5,2.83333 15.5,-0.5 Z"/></g>
    <g><path style="opacity:1" fill="#5b4559" d="M 25.5,-0.5 C 28.1667,-0.5 30.8333,-0.5 33.5,-0.5C 33.5,2.83333 33.5,6.16667 33.5,9.5C 39.5,9.5 45.5,9.5 51.5,9.5C 51.5,12.1667 51.5,14.8333 51.5,17.5C 48.1667,17.5 44.8333,17.5 41.5,17.5C 41.5,20.1667 41.5,22.8333 41.5,25.5C 36.1667,25.5 30.8333,25.5 25.5,25.5C 25.5,22.8333 25.5,20.1667 25.5,17.5C 22.1667,17.5 18.8333,17.5 15.5,17.5C 15.5,14.8333 15.5,12.1667 15.5,9.5C 18.8333,9.5 22.1667,9.5 25.5,9.5C 25.5,6.16667 25.5,2.83333 25.5,-0.5 Z"/></g>
    <g><path style="opacity:1" fill="#564154" d="M 33.5,-0.5 C 39.5,-0.5 45.5,-0.5 51.5,-0.5C 51.5,2.83333 51.5,6.16667 51.5,9.5C 45.5,9.5 39.5,9.5 33.5,9.5C 33.5,6.16667 33.5,2.83333 33.5,-0.5 Z"/></g>
    <g><path style="opacity:1" fill="#5b4559" d="M 51.5,-0.5 C 56.8333,-0.5 62.1667,-0.5 67.5,-0.5C 67.5,2.83333 67.5,6.16667 67.5,9.5C 62.1667,9.5 56.8333,9.5 51.5,9.5C 51.5,6.16667 51.5,2.83333 51.5,-0.5 Z"/></g>
    <g><path style="opacity:1" fill="#564154" d="M 67.5,-0.5 C 73.5,-0.5 79.5,-0.5 85.5,-0.5C 85.5,2.83333 85.5,6.16667 85.5,9.5C 79.5,9.5 73.5,9.5 67.5,9.5C 67.5,6.16667 67.5,2.83333 67.5,-0.5 Z"/></g>
    <g><path style="opacity:1" fill="#5b4559" d="M 85.5,-0.5 C 94.1667,-0.5 102.833,-0.5 111.5,-0.5C 111.5,2.83333 111.5,6.16667 111.5,9.5C 117.5,9.5 123.5,9.5 129.5,9.5C 129.5,12.1667 129.5,14.8333 129.5,17.5C 126.167,17.5 122.833,17.5 119.5,17.5C 119.5,20.1667 119.5,22.8333 119.5,25.5C 116.833,25.5 114.167,25.5 111.5,25.5C 111.5,28.8333 111.5,32.1667 111.5,35.5C 108.833,35.5 106.167,35.5 103.5,35.5C 103.5,32.1667 103.5,28.8333 103.5,25.5C 97.5,25.5 91.5,25.5 85.5,25.5C 85.5,22.8333 85.5,20.1667 85.5,17.5C 91.5,17.5 97.5,17.5 103.5,17.5C 103.5,14.8333 103.5,12.1667 103.5,9.5C 97.5,9.5 91.5,9.5 85.5,9.5C 85.5,6.16667 85.5,2.83333 85.5,-0.5 Z"/></g>
    <g><path style="opacity:1" fill="#564154" d="M 111.5,-0.5 C 117.5,-0.5 123.5,-0.5 129.5,-0.5C 129.5,2.83333 129.5,6.16667 129.5,9.5C 123.5,9.5 117.5,9.5 111.5,9.5C 111.5,6.16667 111.5,2.83333 111.5,-0.5 Z"/></g>
    <g><path style="opacity:1" fill="#564154" d="M -0.5,9.5 C 4.83333,9.5 10.1667,9.5 15.5,9.5C 15.5,12.1667 15.5,14.8333 15.5,17.5C 10.1667,17.5 4.83333,17.5 -0.5,17.5C -0.5,14.8333 -0.5,12.1667 -0.5,9.5 Z"/></g>
    <g><path style="opacity:1" fill="#564154" d="M 51.5,9.5 C 56.8333,9.5 62.1667,9.5 67.5,9.5C 67.5,12.1667 67.5,14.8333 67.5,17.5C 62.1667,17.5 56.8333,17.5 51.5,17.5C 51.5,14.8333 51.5,12.1667 51.5,9.5 Z"/></g>
    <g><path style="opacity:1" fill="#5b4559" d="M 67.5,9.5 C 73.5,9.5 79.5,9.5 85.5,9.5C 85.5,12.1667 85.5,14.8333 85.5,17.5C 82.8333,17.5 80.1667,17.5 77.5,17.5C 77.5,20.1667 77.5,22.8333 77.5,25.5C 71.5,25.5 65.5,25.5 59.5,25.5C 59.5,28.8333 59.5,32.1667 59.5,35.5C 53.5,35.5 47.5,35.5 41.5,35.5C 41.5,32.1667 41.5,28.8333 41.5,25.5C 44.8333,25.5 48.1667,25.5 51.5,25.5C 51.5,22.8333 51.5,20.1667 51.5,17.5C 56.8333,17.5 62.1667,17.5 67.5,17.5C 67.5,14.8333 67.5,12.1667 67.5,9.5 Z"/></g>
    <g><path style="opacity:1" fill="#564154" d="M 85.5,9.5 C 91.5,9.5 97.5,9.5 103.5,9.5C 103.5,12.1667 103.5,14.8333 103.5,17.5C 97.5,17.5 91.5,17.5 85.5,17.5C 85.5,14.8333 85.5,12.1667 85.5,9.5 Z"/></g>
    <g><path style="opacity:1" fill="#5b4559" d="M -0.5,17.5 C 4.83333,17.5 10.1667,17.5 15.5,17.5C 15.5,20.1667 15.5,22.8333 15.5,25.5C 18.8333,25.5 22.1667,25.5 25.5,25.5C 25.5,28.8333 25.5,32.1667 25.5,35.5C 30.8333,35.5 36.1667,35.5 41.5,35.5C 41.5,38.1667 41.5,40.8333 41.5,43.5C 36.1667,43.5 30.8333,43.5 25.5,43.5C 25.5,46.8333 25.5,50.1667 25.5,53.5C 22.1667,53.5 18.8333,53.5 15.5,53.5C 15.5,56.1667 15.5,58.8333 15.5,61.5C 18.8333,61.5 22.1667,61.5 25.5,61.5C 25.5,64.1667 25.5,66.8333 25.5,69.5C 19.5,69.5 13.5,69.5 7.5,69.5C 7.5,66.8333 7.5,64.1667 7.5,61.5C 4.83333,61.5 2.16667,61.5 -0.5,61.5C -0.5,55.5 -0.5,49.5 -0.5,43.5C 4.83333,43.5 10.1667,43.5 15.5,43.5C 15.5,40.8333 15.5,38.1667 15.5,35.5C 10.1667,35.5 4.83333,35.5 -0.5,35.5C -0.5,29.5 -0.5,23.5 -0.5,17.5 Z"/></g>
    <g><path style="opacity:1" fill="#564154" d="M 15.5,17.5 C 18.8333,17.5 22.1667,17.5 25.5,17.5C 25.5,20.1667 25.5,22.8333 25.5,25.5C 22.1667,25.5 18.8333,25.5 15.5,25.5C 15.5,22.8333 15.5,20.1667 15.5,17.5 Z"/></g>
    <g><path style="opacity:1" fill="#564154" d="M 51.5,17.5 C 51.5,20.1667 51.5,22.8333 51.5,25.5C 48.1667,25.5 44.8333,25.5 41.5,25.5C 41.5,22.8333 41.5,20.1667 41.5,17.5C 44.8333,17.5 48.1667,17.5 51.5,17.5 Z"/></g>
    <g><path style="opacity:1" fill="#564154" d="M 85.5,17.5 C 85.5,20.1667 85.5,22.8333 85.5,25.5C 82.8333,25.5 80.1667,25.5 77.5,25.5C 77.5,22.8333 77.5,20.1667 77.5,17.5C 80.1667,17.5 82.8333,17.5 85.5,17.5 Z"/></g>
    <g><path style="opacity:1" fill="#564154" d="M 129.5,17.5 C 129.5,20.1667 129.5,22.8333 129.5,25.5C 126.167,25.5 122.833,25.5 119.5,25.5C 119.5,22.8333 119.5,20.1667 119.5,17.5C 122.833,17.5 126.167,17.5 129.5,17.5 Z"/></g>
    <g><path style="opacity:1" fill="#564154" d="M 25.5,25.5 C 30.8333,25.5 36.1667,25.5 41.5,25.5C 41.5,28.8333 41.5,32.1667 41.5,35.5C 36.1667,35.5 30.8333,35.5 25.5,35.5C 25.5,32.1667 25.5,28.8333 25.5,25.5 Z"/></g>
    <g><path style="opacity:1" fill="#564154" d="M 77.5,25.5 C 77.5,28.8333 77.5,32.1667 77.5,35.5C 71.5,35.5 65.5,35.5 59.5,35.5C 59.5,32.1667 59.5,28.8333 59.5,25.5C 65.5,25.5 71.5,25.5 77.5,25.5 Z"/></g>
    <g><path style="opacity:1" fill="#5b4559" d="M 77.5,25.5 C 80.1667,25.5 82.8333,25.5 85.5,25.5C 85.5,28.8333 85.5,32.1667 85.5,35.5C 91.5,35.5 97.5,35.5 103.5,35.5C 103.5,38.1667 103.5,40.8333 103.5,43.5C 97.5,43.5 91.5,43.5 85.5,43.5C 85.5,46.8333 85.5,50.1667 85.5,53.5C 91.5,53.5 97.5,53.5 103.5,53.5C 103.5,56.1667 103.5,58.8333 103.5,61.5C 100.167,61.5 96.8333,61.5 93.5,61.5C 93.5,64.1667 93.5,66.8333 93.5,69.5C 96.8333,69.5 100.167,69.5 103.5,69.5C 103.5,72.8333 103.5,76.1667 103.5,79.5C 106.167,79.5 108.833,79.5 111.5,79.5C 111.5,82.1667 111.5,84.8333 111.5,87.5C 117.5,87.5 123.5,87.5 129.5,87.5C 129.5,93.5 129.5,99.5 129.5,105.5C 123.5,105.5 117.5,105.5 111.5,105.5C 111.5,102.167 111.5,98.8333 111.5,95.5C 105.5,95.5 99.5,95.5 93.5,95.5C 93.5,98.8333 93.5,102.167 93.5,105.5C 90.8333,105.5 88.1667,105.5 85.5,105.5C 85.5,108.167 85.5,110.833 85.5,113.5C 82.8333,113.5 80.1667,113.5 77.5,113.5C 77.5,110.833 77.5,108.167 77.5,105.5C 74.1667,105.5 70.8333,105.5 67.5,105.5C 67.5,102.167 67.5,98.8333 67.5,95.5C 62.1667,95.5 56.8333,95.5 51.5,95.5C 51.5,92.8333 51.5,90.1667 51.5,87.5C 56.8333,87.5 62.1667,87.5 67.5,87.5C 67.5,84.8333 67.5,82.1667 67.5,79.5C 62.1667,79.5 56.8333,79.5 51.5,79.5C 51.5,76.1667 51.5,72.8333 51.5,69.5C 48.1667,69.5 44.8333,69.5 41.5,69.5C 41.5,66.8333 41.5,64.1667 41.5,61.5C 44.8333,61.5 48.1667,61.5 51.5,61.5C 51.5,58.8333 51.5,56.1667 51.5,53.5C 48.1667,53.5 44.8333,53.5 41.5,53.5C 41.5,50.1667 41.5,46.8333 41.5,43.5C 47.5,43.5 53.5,43.5 59.5,43.5C 59.5,40.8333 59.5,38.1667 59.5,35.5C 65.5,35.5 71.5,35.5 77.5,35.5C 77.5,32.1667 77.5,28.8333 77.5,25.5 Z"/></g>
    <g><path style="opacity:1" fill="#564154" d="M 85.5,25.5 C 91.5,25.5 97.5,25.5 103.5,25.5C 103.5,28.8333 103.5,32.1667 103.5,35.5C 97.5,35.5 91.5,35.5 85.5,35.5C 85.5,32.1667 85.5,28.8333 85.5,25.5 Z"/></g>
    <g><path style="opacity:1" fill="#564154" d="M 119.5,25.5 C 119.5,28.8333 119.5,32.1667 119.5,35.5C 116.833,35.5 114.167,35.5 111.5,35.5C 111.5,32.1667 111.5,28.8333 111.5,25.5C 114.167,25.5 116.833,25.5 119.5,25.5 Z"/></g>
    <g><path style="opacity:1" fill="#5b4559" d="M 119.5,25.5 C 122.833,25.5 126.167,25.5 129.5,25.5C 129.5,31.5 129.5,37.5 129.5,43.5C 123.5,43.5 117.5,43.5 111.5,43.5C 111.5,40.8333 111.5,38.1667 111.5,35.5C 114.167,35.5 116.833,35.5 119.5,35.5C 119.5,32.1667 119.5,28.8333 119.5,25.5 Z"/></g>
    <g><path style="opacity:1" fill="#564154" d="M -0.5,35.5 C 4.83333,35.5 10.1667,35.5 15.5,35.5C 15.5,38.1667 15.5,40.8333 15.5,43.5C 10.1667,43.5 4.83333,43.5 -0.5,43.5C -0.5,40.8333 -0.5,38.1667 -0.5,35.5 Z"/></g>
    <g><path style="opacity:1" fill="#564154" d="M 41.5,35.5 C 47.5,35.5 53.5,35.5 59.5,35.5C 59.5,38.1667 59.5,40.8333 59.5,43.5C 53.5,43.5 47.5,43.5 41.5,43.5C 41.5,40.8333 41.5,38.1667 41.5,35.5 Z"/></g>
    <g><path style="opacity:1" fill="#564154" d="M 103.5,35.5 C 106.167,35.5 108.833,35.5 111.5,35.5C 111.5,38.1667 111.5,40.8333 111.5,43.5C 108.833,43.5 106.167,43.5 103.5,43.5C 103.5,40.8333 103.5,38.1667 103.5,35.5 Z"/></g>
    <g><path style="opacity:1" fill="#564154" d="M 41.5,43.5 C 41.5,46.8333 41.5,50.1667 41.5,53.5C 36.1667,53.5 30.8333,53.5 25.5,53.5C 25.5,50.1667 25.5,46.8333 25.5,43.5C 30.8333,43.5 36.1667,43.5 41.5,43.5 Z"/></g>
    <g><path style="opacity:1" fill="#564154" d="M 59.5,43.5 C 65.5,43.5 71.5,43.5 77.5,43.5C 77.5,46.8333 77.5,50.1667 77.5,53.5C 71.5,53.5 65.5,53.5 59.5,53.5C 59.5,50.1667 59.5,46.8333 59.5,43.5 Z"/></g>
    <g><path style="opacity:1" fill="#564154" d="M 103.5,43.5 C 103.5,46.8333 103.5,50.1667 103.5,53.5C 97.5,53.5 91.5,53.5 85.5,53.5C 85.5,50.1667 85.5,46.8333 85.5,43.5C 91.5,43.5 97.5,43.5 103.5,43.5 Z"/></g>
    <g><path style="opacity:1" fill="#5b4559" d="M 103.5,43.5 C 106.167,43.5 108.833,43.5 111.5,43.5C 111.5,46.8333 111.5,50.1667 111.5,53.5C 108.833,53.5 106.167,53.5 103.5,53.5C 103.5,50.1667 103.5,46.8333 103.5,43.5 Z"/></g>
    <g><path style="opacity:1" fill="#564154" d="M 111.5,43.5 C 117.5,43.5 123.5,43.5 129.5,43.5C 129.5,46.8333 129.5,50.1667 129.5,53.5C 123.5,53.5 117.5,53.5 111.5,53.5C 111.5,50.1667 111.5,46.8333 111.5,43.5 Z"/></g>
    <g><path style="opacity:1" fill="#564154" d="M 25.5,53.5 C 25.5,56.1667 25.5,58.8333 25.5,61.5C 22.1667,61.5 18.8333,61.5 15.5,61.5C 15.5,58.8333 15.5,56.1667 15.5,53.5C 18.8333,53.5 22.1667,53.5 25.5,53.5 Z"/></g>
    <g><path style="opacity:1" fill="#5b4559" d="M 25.5,53.5 C 30.8333,53.5 36.1667,53.5 41.5,53.5C 41.5,56.1667 41.5,58.8333 41.5,61.5C 36.1667,61.5 30.8333,61.5 25.5,61.5C 25.5,58.8333 25.5,56.1667 25.5,53.5 Z"/></g>
    <g><path style="opacity:1" fill="#564154" d="M 41.5,53.5 C 44.8333,53.5 48.1667,53.5 51.5,53.5C 51.5,56.1667 51.5,58.8333 51.5,61.5C 48.1667,61.5 44.8333,61.5 41.5,61.5C 41.5,58.8333 41.5,56.1667 41.5,53.5 Z"/></g>
    <g><path style="opacity:1" fill="#564154" d="M 103.5,53.5 C 106.167,53.5 108.833,53.5 111.5,53.5C 111.5,56.1667 111.5,58.8333 111.5,61.5C 108.833,61.5 106.167,61.5 103.5,61.5C 103.5,58.8333 103.5,56.1667 103.5,53.5 Z"/></g>
    <g><path style="opacity:1" fill="#5b4559" d="M 111.5,53.5 C 117.5,53.5 123.5,53.5 129.5,53.5C 129.5,62.1667 129.5,70.8333 129.5,79.5C 123.5,79.5 117.5,79.5 111.5,79.5C 111.5,76.1667 111.5,72.8333 111.5,69.5C 114.167,69.5 116.833,69.5 119.5,69.5C 119.5,66.8333 119.5,64.1667 119.5,61.5C 116.833,61.5 114.167,61.5 111.5,61.5C 111.5,58.8333 111.5,56.1667 111.5,53.5 Z"/></g>
    <g><path style="opacity:1" fill="#564154" d="M -0.5,61.5 C 2.16667,61.5 4.83333,61.5 7.5,61.5C 7.5,64.1667 7.5,66.8333 7.5,69.5C 4.83333,69.5 2.16667,69.5 -0.5,69.5C -0.5,66.8333 -0.5,64.1667 -0.5,61.5 Z"/></g>
    <g><path style="opacity:1" fill="#564154" d="M 25.5,61.5 C 30.8333,61.5 36.1667,61.5 41.5,61.5C 41.5,64.1667 41.5,66.8333 41.5,69.5C 36.1667,69.5 30.8333,69.5 25.5,69.5C 25.5,66.8333 25.5,64.1667 25.5,61.5 Z"/></g>
    <g><path style="opacity:1" fill="#564154" d="M 77.5,69.5 C 71.5,69.5 65.5,69.5 59.5,69.5C 59.5,66.8333 59.5,64.1667 59.5,61.5C 65.5,61.5 71.5,61.5 77.5,61.5C 77.5,64.1667 77.5,66.8333 77.5,69.5 Z"/></g>
    <g><path style="opacity:1" fill="#564154" d="M 103.5,61.5 C 103.5,64.1667 103.5,66.8333 103.5,69.5C 100.167,69.5 96.8333,69.5 93.5,69.5C 93.5,66.8333 93.5,64.1667 93.5,61.5C 96.8333,61.5 100.167,61.5 103.5,61.5 Z"/></g>
    <g><path style="opacity:1" fill="#5b4559" d="M 103.5,61.5 C 106.167,61.5 108.833,61.5 111.5,61.5C 111.5,64.1667 111.5,66.8333 111.5,69.5C 108.833,69.5 106.167,69.5 103.5,69.5C 103.5,66.8333 103.5,64.1667 103.5,61.5 Z"/></g>
    <g><path style="opacity:1" fill="#564154" d="M 111.5,61.5 C 114.167,61.5 116.833,61.5 119.5,61.5C 119.5,64.1667 119.5,66.8333 119.5,69.5C 116.833,69.5 114.167,69.5 111.5,69.5C 111.5,66.8333 111.5,64.1667 111.5,61.5 Z"/></g>
    <g><path style="opacity:1" fill="#5b4559" d="M -0.5,69.5 C 2.16667,69.5 4.83333,69.5 7.5,69.5C 7.5,72.8333 7.5,76.1667 7.5,79.5C 13.5,79.5 19.5,79.5 25.5,79.5C 25.5,82.1667 25.5,84.8333 25.5,87.5C 28.1667,87.5 30.8333,87.5 33.5,87.5C 33.5,90.1667 33.5,92.8333 33.5,95.5C 27.5,95.5 21.5,95.5 15.5,95.5C 15.5,92.8333 15.5,90.1667 15.5,87.5C 10.1667,87.5 4.83333,87.5 -0.5,87.5C -0.5,81.5 -0.5,75.5 -0.5,69.5 Z"/></g>
    <g><path style="opacity:1" fill="#564154" d="M 7.5,69.5 C 13.5,69.5 19.5,69.5 25.5,69.5C 25.5,72.8333 25.5,76.1667 25.5,79.5C 19.5,79.5 13.5,79.5 7.5,79.5C 7.5,76.1667 7.5,72.8333 7.5,69.5 Z"/></g>
    <g><path style="opacity:1" fill="#5b4559" d="M 25.5,69.5 C 30.8333,69.5 36.1667,69.5 41.5,69.5C 44.8333,69.5 48.1667,69.5 51.5,69.5C 51.5,72.8333 51.5,76.1667 51.5,79.5C 51.5,82.1667 51.5,84.8333 51.5,87.5C 45.5,87.5 39.5,87.5 33.5,87.5C 30.8333,87.5 28.1667,87.5 25.5,87.5C 25.5,84.8333 25.5,82.1667 25.5,79.5C 25.5,76.1667 25.5,72.8333 25.5,69.5 Z"/></g>
    <g><path style="opacity:1" fill="#564154" d="M 41.5,69.5 C 44.8333,69.5 48.1667,69.5 51.5,69.5C 51.5,72.8333 51.5,76.1667 51.5,79.5C 48.1667,79.5 44.8333,79.5 41.5,79.5C 41.5,76.1667 41.5,72.8333 41.5,69.5 Z"/></g>
    <g><path style="opacity:1" fill="#564154" d="M 77.5,69.5 C 82.8333,69.5 88.1667,69.5 93.5,69.5C 93.5,72.8333 93.5,76.1667 93.5,79.5C 88.1667,79.5 82.8333,79.5 77.5,79.5C 77.5,76.1667 77.5,72.8333 77.5,69.5 Z"/></g>
    <g><path style="opacity:1" fill="#564154" d="M 103.5,69.5 C 106.167,69.5 108.833,69.5 111.5,69.5C 111.5,72.8333 111.5,76.1667 111.5,79.5C 108.833,79.5 106.167,79.5 103.5,79.5C 103.5,76.1667 103.5,72.8333 103.5,69.5 Z"/></g>
    <g><path style="opacity:1" fill="#564154" d="M 25.5,79.5 C 28.1667,79.5 30.8333,79.5 33.5,79.5C 33.5,82.1667 33.5,84.8333 33.5,87.5C 33.5,84.8333 33.5,82.1667 33.5,79.5C 30.8333,79.5 28.1667,79.5 25.5,79.5 Z"/></g>
    <g><path style="opacity:1" fill="#564154" d="M 51.5,79.5 C 56.8333,79.5 62.1667,79.5 67.5,79.5C 67.5,82.1667 67.5,84.8333 67.5,87.5C 62.1667,87.5 56.8333,87.5 51.5,87.5C 51.5,84.8333 51.5,82.1667 51.5,79.5 Z"/></g>
    <g><path style="opacity:1" fill="#564154" d="M 111.5,79.5 C 117.5,79.5 123.5,79.5 129.5,79.5C 129.5,82.1667 129.5,84.8333 129.5,87.5C 123.5,87.5 117.5,87.5 111.5,87.5C 111.5,84.8333 111.5,82.1667 111.5,79.5 Z"/></g>
    <g><path style="opacity:1" fill="#564154" d="M -0.5,87.5 C 4.83333,87.5 10.1667,87.5 15.5,87.5C 15.5,90.1667 15.5,92.8333 15.5,95.5C 10.1667,95.5 4.83333,95.5 -0.5,95.5C -0.5,92.8333 -0.5,90.1667 -0.5,87.5 Z"/></g>
    <g><path style="opacity:1" fill="#564154" d="M 33.5,87.5 C 39.5,87.5 45.5,87.5 51.5,87.5C 51.5,90.1667 51.5,92.8333 51.5,95.5C 45.5,95.5 39.5,95.5 33.5,95.5C 33.5,92.8333 33.5,90.1667 33.5,87.5 Z"/></g>
    <g><path style="opacity:1" fill="#564154" d="M 93.5,95.5 C 88.1667,95.5 82.8333,95.5 77.5,95.5C 77.5,92.8333 77.5,90.1667 77.5,87.5C 82.8333,87.5 88.1667,87.5 93.5,87.5C 93.5,90.1667 93.5,92.8333 93.5,95.5 Z"/></g>
    <g><path style="opacity:1" fill="#5b4559" d="M -0.5,95.5 C 4.83333,95.5 10.1667,95.5 15.5,95.5C 15.5,98.8333 15.5,102.167 15.5,105.5C 12.8333,105.5 10.1667,105.5 7.5,105.5C 7.5,108.167 7.5,110.833 7.5,113.5C 4.83333,113.5 2.16667,113.5 -0.5,113.5C -0.5,107.5 -0.5,101.5 -0.5,95.5 Z"/></g>
    <g><path style="opacity:1" fill="#564154" d="M 15.5,95.5 C 21.5,95.5 27.5,95.5 33.5,95.5C 33.5,98.8333 33.5,102.167 33.5,105.5C 27.5,105.5 21.5,105.5 15.5,105.5C 15.5,102.167 15.5,98.8333 15.5,95.5 Z"/></g>
    <g><path style="opacity:1" fill="#5b4559" d="M 33.5,95.5 C 39.5,95.5 45.5,95.5 51.5,95.5C 51.5,98.8333 51.5,102.167 51.5,105.5C 56.8333,105.5 62.1667,105.5 67.5,105.5C 67.5,108.167 67.5,110.833 67.5,113.5C 70.8333,113.5 74.1667,113.5 77.5,113.5C 77.5,116.167 77.5,118.833 77.5,121.5C 71.5,121.5 65.5,121.5 59.5,121.5C 59.5,118.833 59.5,116.167 59.5,113.5C 53.5,113.5 47.5,113.5 41.5,113.5C 41.5,110.833 41.5,108.167 41.5,105.5C 38.8333,105.5 36.1667,105.5 33.5,105.5C 33.5,102.167 33.5,98.8333 33.5,95.5 Z"/></g>
    <g><path style="opacity:1" fill="#564154" d="M 51.5,95.5 C 56.8333,95.5 62.1667,95.5 67.5,95.5C 67.5,98.8333 67.5,102.167 67.5,105.5C 62.1667,105.5 56.8333,105.5 51.5,105.5C 51.5,102.167 51.5,98.8333 51.5,95.5 Z"/></g>
    <g><path style="opacity:1" fill="#564154" d="M 93.5,95.5 C 99.5,95.5 105.5,95.5 111.5,95.5C 111.5,98.8333 111.5,102.167 111.5,105.5C 105.5,105.5 99.5,105.5 93.5,105.5C 93.5,102.167 93.5,98.8333 93.5,95.5 Z"/></g>
    <g><path style="opacity:1" fill="#564154" d="M 15.5,105.5 C 15.5,108.167 15.5,110.833 15.5,113.5C 12.8333,113.5 10.1667,113.5 7.5,113.5C 7.5,110.833 7.5,108.167 7.5,105.5C 10.1667,105.5 12.8333,105.5 15.5,105.5 Z"/></g>
    <g><path style="opacity:1" fill="#5b4559" d="M 15.5,105.5 C 21.5,105.5 27.5,105.5 33.5,105.5C 36.1667,105.5 38.8333,105.5 41.5,105.5C 41.5,108.167 41.5,110.833 41.5,113.5C 41.5,116.167 41.5,118.833 41.5,121.5C 47.5,121.5 53.5,121.5 59.5,121.5C 59.5,124.167 59.5,126.833 59.5,129.5C 48.1667,129.5 36.8333,129.5 25.5,129.5C 25.5,126.833 25.5,124.167 25.5,121.5C 19.5,121.5 13.5,121.5 7.5,121.5C 7.5,118.833 7.5,116.167 7.5,113.5C 10.1667,113.5 12.8333,113.5 15.5,113.5C 15.5,110.833 15.5,108.167 15.5,105.5 Z"/></g>
    <g><path style="opacity:1" fill="#564154" d="M 33.5,105.5 C 36.1667,105.5 38.8333,105.5 41.5,105.5C 41.5,108.167 41.5,110.833 41.5,113.5C 38.8333,113.5 36.1667,113.5 33.5,113.5C 33.5,110.833 33.5,108.167 33.5,105.5 Z"/></g>
    <g><path style="opacity:1" fill="#564154" d="M 67.5,105.5 C 70.8333,105.5 74.1667,105.5 77.5,105.5C 77.5,108.167 77.5,110.833 77.5,113.5C 74.1667,113.5 70.8333,113.5 67.5,113.5C 67.5,110.833 67.5,108.167 67.5,105.5 Z"/></g>
    <g><path style="opacity:1" fill="#564154" d="M 93.5,105.5 C 93.5,108.167 93.5,110.833 93.5,113.5C 90.8333,113.5 88.1667,113.5 85.5,113.5C 85.5,110.833 85.5,108.167 85.5,105.5C 88.1667,105.5 90.8333,105.5 93.5,105.5 Z"/></g>
    <g><path style="opacity:1" fill="#5b4559" d="M 93.5,105.5 C 99.5,105.5 105.5,105.5 111.5,105.5C 111.5,108.167 111.5,110.833 111.5,113.5C 117.5,113.5 123.5,113.5 129.5,113.5C 129.5,118.833 129.5,124.167 129.5,129.5C 126.167,129.5 122.833,129.5 119.5,129.5C 119.5,126.833 119.5,124.167 119.5,121.5C 116.833,121.5 114.167,121.5 111.5,121.5C 111.5,124.167 111.5,126.833 111.5,129.5C 108.833,129.5 106.167,129.5 103.5,129.5C 103.5,126.833 103.5,124.167 103.5,121.5C 97.5,121.5 91.5,121.5 85.5,121.5C 85.5,118.833 85.5,116.167 85.5,113.5C 88.1667,113.5 90.8333,113.5 93.5,113.5C 93.5,110.833 93.5,108.167 93.5,105.5 Z"/></g>
    <g><path style="opacity:1" fill="#564154" d="M 111.5,105.5 C 117.5,105.5 123.5,105.5 129.5,105.5C 129.5,108.167 129.5,110.833 129.5,113.5C 123.5,113.5 117.5,113.5 111.5,113.5C 111.5,110.833 111.5,108.167 111.5,105.5 Z"/></g>
    <g><path style="opacity:1" fill="#564154" d="M -0.5,113.5 C 2.16667,113.5 4.83333,113.5 7.5,113.5C 7.5,116.167 7.5,118.833 7.5,121.5C 4.83333,121.5 2.16667,121.5 -0.5,121.5C -0.5,118.833 -0.5,116.167 -0.5,113.5 Z"/></g>
    <g><path style="opacity:1" fill="#564154" d="M 41.5,113.5 C 47.5,113.5 53.5,113.5 59.5,113.5C 59.5,116.167 59.5,118.833 59.5,121.5C 53.5,121.5 47.5,121.5 41.5,121.5C 41.5,118.833 41.5,116.167 41.5,113.5 Z"/></g>
    <g><path style="opacity:1" fill="#564154" d="M 77.5,113.5 C 80.1667,113.5 82.8333,113.5 85.5,113.5C 85.5,116.167 85.5,118.833 85.5,121.5C 82.8333,121.5 80.1667,121.5 77.5,121.5C 77.5,118.833 77.5,116.167 77.5,113.5 Z"/></g>
    <g><path style="opacity:1" fill="#5b4559" d="M -0.5,121.5 C 2.16667,121.5 4.83333,121.5 7.5,121.5C 7.5,124.167 7.5,126.833 7.5,129.5C 4.83333,129.5 2.16667,129.5 -0.5,129.5C -0.5,126.833 -0.5,124.167 -0.5,121.5 Z"/></g>
    <g><path style="opacity:1" fill="#564154" d="M 7.5,121.5 C 13.5,121.5 19.5,121.5 25.5,121.5C 25.5,124.167 25.5,126.833 25.5,129.5C 19.5,129.5 13.5,129.5 7.5,129.5C 7.5,126.833 7.5,124.167 7.5,121.5 Z"/></g>
    <g><path style="opacity:1" fill="#564154" d="M 59.5,121.5 C 65.5,121.5 71.5,121.5 77.5,121.5C 77.5,124.167 77.5,126.833 77.5,129.5C 71.5,129.5 65.5,129.5 59.5,129.5C 59.5,126.833 59.5,124.167 59.5,121.5 Z"/></g>
    <g><path style="opacity:1" fill="#5b4559" d="M 77.5,121.5 C 80.1667,121.5 82.8333,121.5 85.5,121.5C 85.5,124.167 85.5,126.833 85.5,129.5C 82.8333,129.5 80.1667,129.5 77.5,129.5C 77.5,126.833 77.5,124.167 77.5,121.5 Z"/></g>
    <g><path style="opacity:1" fill="#564154" d="M 85.5,121.5 C 91.5,121.5 97.5,121.5 103.5,121.5C 103.5,124.167 103.5,126.833 103.5,129.5C 97.5,129.5 91.5,129.5 85.5,129.5C 85.5,126.833 85.5,124.167 85.5,121.5 Z"/></g>
    <g><path style="opacity:1" fill="#564154" d="M 119.5,129.5 C 116.833,129.5 114.167,129.5 111.5,129.5C 111.5,126.833 111.5,124.167 111.5,121.5C 114.167,121.5 116.833,121.5 119.5,121.5C 119.5,124.167 119.5,126.833 119.5,129.5 Z"/></g>
</svg>
